<svg width="260" height="260" viewBox="0 0 260 260" fill="none" xmlns="http://www.w3.org/2000/svg">
<path d="M180.12 259.307C179.338 259.172 176.906 258.777 174.716 258.428C160.362 256.143 142.256 246.247 133.002 235.631C131.025 233.362 129.186 231.506 128.916 231.506C128.646 231.506 121.987 237.747 114.117 245.375L99.8077 259.243L82.7094 242.171L65.6111 225.1L67.3977 222.88C69.3858 220.41 70.7994 216.145 71.279 211.171C71.6074 207.764 70.3705 201.164 68.8473 198.195C67.4349 195.443 62.6928 191.292 58.941 189.524C55.6725 187.983 54.6448 187.779 50.1211 187.773C44.2095 187.765 40.982 188.764 36.9188 191.861L34.314 193.846L17.3271 176.892C7.98423 167.568 0.340088 159.736 0.340088 159.489C0.340088 159.241 35.8044 123.588 79.1497 80.2592L157.959 1.47998L175.236 18.7229L192.512 35.9659L190.589 38.4824C184.393 46.5861 185.437 59.3286 192.906 66.7866C200.376 74.2447 213.138 75.2865 221.254 69.1008L223.775 67.1799L241.057 84.4429L258.34 101.706L243.857 116.175L229.374 130.644L231.913 132.747C244.631 143.277 254.19 159.121 257.302 174.829C258.662 181.693 258.659 194.62 257.295 201.115C254.327 215.256 248.172 227.241 238.889 236.957C236.449 239.511 233.655 242.141 232.679 242.801C231.704 243.462 229.016 245.309 226.706 246.906C219.16 252.121 210.168 256.056 201.455 257.954C196.587 259.015 183.321 259.856 180.12 259.307ZM197.147 237.763C206.933 235.708 215.96 230.775 223.003 223.634C230.758 215.772 234.931 207.902 236.382 198.406C237.753 189.431 236.782 176.036 234.285 169.472C229.966 158.124 220.404 147.883 208.939 142.326C194.807 135.478 177.701 135.537 163.87 142.482C154.13 147.373 146.57 155.117 141.29 165.612C132.992 182.105 134.594 203.225 145.199 217.15C154.409 229.244 162.676 234.8 175.854 237.751C180.539 238.801 192.175 238.807 197.147 237.763ZM109.988 220.412L119.076 211.59L117.36 205.074C115.761 199.002 115.643 197.863 115.63 188.334C115.62 180.7 115.86 177.053 116.58 173.941C118.027 167.686 120.205 161.583 122.7 156.795C123.929 154.436 124.935 152.302 124.935 152.051C124.935 150.767 131.532 142.269 136.029 137.761C144.436 129.332 155.609 122.664 166.751 119.426C174.406 117.202 177.5 116.79 186.663 116.775C195.763 116.76 201.688 117.562 207.659 119.616L209.961 120.408L219.078 111.483C224.092 106.575 228.265 102.303 228.351 101.991C228.437 101.678 226.507 99.4378 224.063 97.012L219.619 92.6013L216.511 93.2309C211.443 94.2576 202.631 94.0008 197.594 92.6796C189.839 90.6453 184.561 87.501 178.367 81.2241C172.082 74.8551 169 69.6417 167.027 62.0446C165.595 56.5264 165.325 47.8886 166.44 43.2813L167.177 40.2407L162.71 35.7547C160.254 33.2873 158.092 31.2686 157.906 31.2686C157.564 31.2686 48.2092 140.164 36.2099 152.453L29.6949 159.126L34.2696 163.694L38.8442 168.261L41.3536 167.578C45.2975 166.505 55.1001 166.772 60.1544 168.091C75.2182 172.022 87.5169 184.278 91.4192 199.248C92.7285 204.271 93.0019 213.322 91.9785 217.761L91.3494 220.491L95.4835 225.013C97.7572 227.501 99.9063 229.468 100.259 229.385C100.612 229.302 104.99 225.264 109.988 220.412Z" fill="black"/>
<path d="M145.466 74.9232L131.683 61.1509L121.941 70.3979L135.724 84.1702L145.466 74.9232Z" fill="black"/>
<path d="M167.694 97.6895L153.911 83.9172L144.169 93.1642L157.952 106.937L167.694 97.6895Z" fill="black"/>
<path d="M190.186 120.147L176.403 106.375L166.661 115.621L180.444 129.394L190.186 120.147Z" fill="black"/>
<path d="M186.524 230.369C183.466 229.043 181.64 227.266 181.097 225.089C180.813 223.955 180.426 218.157 180.236 212.205L179.891 201.383L169.058 201.111C163.1 200.961 157.423 200.598 156.443 200.304C154.407 199.692 150.826 196.091 150.343 194.168C150.167 193.469 150.116 191.616 150.23 190.049C150.397 187.741 150.744 186.813 152.056 185.159C154.629 181.915 155.528 181.648 165.511 181.164C170.399 180.927 175.634 180.726 177.146 180.717L179.893 180.7L180.24 169.323C180.634 156.413 180.864 155.495 184.305 153.104C185.779 152.079 187.131 151.606 189.028 151.449C192.486 151.162 194.626 151.909 196.841 154.174C199.163 156.548 199.485 158.284 199.925 170.76L200.27 180.561L211.348 180.9C222.279 181.234 222.455 181.256 224.631 182.577C227.271 184.18 230.022 188.4 230.022 190.848C230.022 194.35 227.589 197.965 223.896 199.947C222.091 200.917 221.076 201.013 211.099 201.166L200.262 201.332L199.919 211.935C199.731 217.766 199.375 223.314 199.127 224.263C198.88 225.212 197.846 226.797 196.83 227.786C193.622 230.907 189.908 231.838 186.524 230.369Z" fill="black"/>
</svg>
