<svg width="43" height="43" viewBox="0 0 43 43" fill="none" xmlns="http://www.w3.org/2000/svg">
<path d="M28.1241 15.3319L25.8706 13.0718L24.2778 14.5893L26.5313 16.8494L28.1241 15.3319Z" fill="black"/>
<path d="M30.6245 36.7743C30.1247 36.5566 29.8261 36.265 29.7372 35.9078C29.6909 35.7216 29.6276 34.7701 29.5965 33.7933L29.5401 32.0174L27.7689 31.9728C26.7948 31.9482 25.8666 31.8886 25.7063 31.8403C25.3734 31.7399 24.788 31.1488 24.709 30.8333C24.6803 30.7187 24.672 30.4145 24.6906 30.1574C24.7179 29.7787 24.7746 29.6263 24.9891 29.3549C25.4098 28.8226 25.5568 28.7788 27.1889 28.6994C27.9881 28.6605 28.8441 28.6274 29.0912 28.6259L29.5405 28.6232L29.5972 26.7562C29.6615 24.6375 29.6991 24.4869 30.2617 24.0945C30.5028 23.9263 30.7238 23.8486 31.034 23.8228C31.5994 23.7758 31.9492 23.8983 32.3115 24.2701C32.691 24.6596 32.7437 24.9444 32.8156 26.9919L32.8721 28.6004L34.6833 28.6559C36.4706 28.7107 36.4992 28.7144 36.8551 28.9312C37.2867 29.1942 37.7364 29.8868 37.7364 30.2885C37.7364 30.8632 37.3386 31.4564 36.7349 31.7818C36.4398 31.9409 36.2739 31.9567 34.6426 31.9818L32.8707 32.009L32.8147 33.749C32.7839 34.706 32.7257 35.6164 32.6853 35.7721C32.6448 35.9278 32.4758 36.188 32.3096 36.3504C31.7851 36.8626 31.1779 37.0153 30.6245 36.7743Z" fill="black"/>
<path d="M29.2892 41.947C28.1279 41.6972 27.3307 41.4114 26.2077 40.8421C24.794 40.1256 24.133 39.659 22.9469 38.5406L21.913 37.5656L21.6992 37.7334C21.5816 37.8257 20.5249 38.8214 19.3508 39.9461C18.1768 41.0708 17.1919 42.0004 17.1621 42.0119C17.1324 42.0233 15.8874 40.8071 14.3955 39.3091L11.6829 36.5855L11.8993 36.2415C12.5072 35.2749 12.6718 34.1128 12.3705 32.9143C12.2661 32.499 12.0969 32.0745 11.9577 31.8789C11.6551 31.4534 11.0482 30.9764 10.4198 30.6701C9.96661 30.4491 9.84862 30.4285 9.03748 30.4284C8.03934 30.4283 7.6711 30.5313 6.90121 31.0256L6.43806 31.323L3.69657 28.5704L0.955078 25.8178L13.7506 12.9548C20.7882 5.88015 26.5904 0.0917969 26.6445 0.0917969C26.6986 0.0917969 27.972 1.31656 29.4744 2.8135L32.206 5.5352L31.9475 5.91232C30.6956 7.73874 31.3124 10.2982 33.2399 11.2749C34.4728 11.8996 35.8105 11.8051 37.098 11.0025L37.4334 10.7934L40.1942 13.5655L42.9551 16.3375L40.6021 18.7004L38.2491 21.0633L39.0079 21.7693C40.9682 23.5932 42.3221 25.9343 42.8412 28.3976C43.005 29.1749 42.9807 31.975 42.8034 32.748C42.0668 35.9602 40.2586 38.5801 37.6659 40.192C36.2139 41.0947 34.8446 41.6708 33.5833 41.9096C33.1956 41.9831 32.2529 42.0589 31.4775 42.0791C30.2835 42.1102 29.9565 42.0905 29.2892 41.947ZM33.1829 38.6782C35.5846 38.1951 38.0427 36.2019 39.0128 33.951C39.4964 32.8289 39.569 32.3794 39.562 30.5527C39.5531 28.2777 39.3581 27.4595 38.4917 26.0643C37.4341 24.361 35.6637 23.033 33.6246 22.4135C32.9263 22.2013 32.7866 22.1877 31.3124 22.1896C29.8385 22.1915 29.6983 22.2054 29.0002 22.4197C26.7452 23.1119 25.0344 24.5516 23.9649 26.657C22.5534 29.4353 22.7454 32.7893 24.4534 35.1918C24.9623 35.9076 25.9064 36.9022 26.507 37.3554C27.5857 38.1693 29.0568 38.7047 30.4453 38.7888C31.3013 38.8407 32.6451 38.7863 33.1829 38.6782ZM18.5264 36.1572C19.2001 35.5243 19.8905 34.8608 20.0607 34.6828L20.3701 34.359L20.106 33.3262C19.8507 32.3278 19.8418 32.2352 19.8389 30.5527C19.835 28.291 20.0055 27.5111 20.9623 25.4148C21.5388 24.1516 22.0408 23.449 23.2062 22.2742C24.4891 20.9811 25.9463 20.0696 27.7234 19.4487C28.1943 19.2842 28.5973 19.1319 28.6187 19.1103C28.6402 19.0888 28.5589 18.9676 28.4381 18.841L28.2184 18.6108L28.9412 17.8887L29.6639 17.1666L30.528 18.0369L31.392 18.9071L32.0954 18.9072C32.8353 18.9073 33.8393 19.0585 34.533 19.2742C34.7601 19.3448 35.0224 19.403 35.116 19.4035C35.2938 19.4045 38.2078 16.5279 38.2078 16.3515C38.2078 16.3011 37.8826 15.9221 37.4852 15.5092L36.7626 14.7585L36.2672 14.843C35.5291 14.969 34.0751 14.9462 33.3528 14.7974C31.8035 14.4784 30.3322 13.4307 29.1137 11.7788C28.8046 11.3598 28.5091 10.7444 28.2977 10.0796C28.0674 9.35542 27.9744 7.49864 28.1289 6.71028L28.2286 6.20189L27.7473 5.70993C27.4826 5.43935 27.1267 5.1059 26.9566 4.96893L26.6471 4.7199L24.293 7.02529L21.9389 9.33069L23.0167 10.4148L24.0946 11.4989L23.3389 12.2301L22.5832 12.9613L21.5177 11.8941L20.4522 10.827L13.0207 18.2858L5.58926 25.7445L6.35997 26.5181L7.13069 27.2917L7.81937 27.1906C8.633 27.0712 10.0409 27.1328 10.7186 27.3175C11.3324 27.4847 12.0211 27.7951 12.5951 28.1631C14.9739 29.6883 16.1876 32.2814 15.8381 35.0919L15.7334 35.9341L16.4302 36.621C16.8135 36.9988 17.1663 37.3079 17.2142 37.3079C17.2622 37.3079 17.8526 36.7901 18.5264 36.1572Z" fill="black"/>
</svg>
