<svg width="64" height="64" viewBox="0 0 64 64" fill="none" xmlns="http://www.w3.org/2000/svg">
<rect x="2" y="2" width="60" height="60" rx="30" fill="black"/>
<path d="M36.169 24.2402L33.9155 21.98L32.3227 23.4975L34.5762 25.7577L36.169 24.2402Z" fill="#FFC525"/>
<path d="M38.6694 45.6824C38.1696 45.4647 37.871 45.1731 37.7821 44.8158C37.7358 44.6297 37.6725 43.6782 37.6415 42.7014L37.585 40.9255L35.8139 40.8808C34.8397 40.8563 33.9115 40.7966 33.7512 40.7483C33.4184 40.648 32.833 40.0569 32.7539 39.7414C32.7252 39.6267 32.7169 39.3226 32.7355 39.0655C32.7628 38.6868 32.8195 38.5344 33.034 38.263C33.4547 37.7306 33.6017 37.6868 35.2339 37.6074C36.033 37.5686 36.8891 37.5355 37.1361 37.534L37.5854 37.5313L37.6421 35.6643C37.7065 33.5456 37.7441 33.395 38.3067 33.0026C38.5478 32.8344 38.7687 32.7567 39.0789 32.7309C39.6443 32.6839 39.9941 32.8064 40.3564 33.1782C40.7359 33.5677 40.7887 33.8525 40.8605 35.9L40.917 37.5084L42.7282 37.564C44.5155 37.6188 44.5442 37.6224 44.9 37.8393C45.3316 38.1023 45.7814 38.7949 45.7814 39.1966C45.7814 39.7713 45.3835 40.3645 44.7798 40.6899C44.4847 40.8489 44.3188 40.8648 42.6875 40.8898L40.9157 40.917L40.8597 42.657C40.8289 43.6141 40.7706 44.5245 40.7302 44.6802C40.6898 44.8359 40.5207 45.0961 40.3545 45.2585C39.83 45.7706 39.2228 45.9234 38.6694 45.6824Z" fill="#FFC525"/>
<path d="M37.3341 50.8552C36.1728 50.6054 35.3756 50.3196 34.2526 49.7503C32.8389 49.0338 32.1779 48.5672 30.9918 47.4488L29.9579 46.4738L29.7441 46.6416C29.6266 46.7339 28.5698 47.7296 27.3958 48.8543C26.2217 49.979 25.2368 50.9086 25.2071 50.9201C25.1773 50.9315 23.9323 49.7153 22.4404 48.2173L19.7278 45.4937L19.9442 45.1497C20.5521 44.1831 20.7167 43.021 20.4154 41.8225C20.3111 41.4072 20.1418 40.9827 20.0027 40.7871C19.7 40.3616 19.0931 39.8846 18.4647 39.5783C18.0115 39.3573 17.8935 39.3367 17.0824 39.3366C16.0843 39.3365 15.716 39.4395 14.9461 39.9338L14.483 40.2312L11.7415 37.4786L9 34.726L21.7956 21.863C28.8331 14.7884 34.6353 9 34.6894 9C34.7435 9 36.0169 10.2248 37.5193 11.7217L40.2509 14.4434L39.9924 14.8205C38.7405 16.6469 39.3573 19.2064 41.2848 20.1831C42.5178 20.8078 43.8554 20.7133 45.1429 19.9107L45.4783 19.7016L48.2392 22.4737L51 25.2457L48.647 27.6086L46.294 29.9716L47.0528 30.6775C49.0131 32.5014 50.367 34.8425 50.8861 37.3058C51.0499 38.0831 51.0256 40.8832 50.8484 41.6562C50.1117 44.8684 48.3036 47.4883 45.7108 49.1002C44.2588 50.0029 42.8895 50.579 41.6282 50.8178C41.2406 50.8913 40.2978 50.9671 39.5225 50.9873C38.3284 51.0184 38.0014 50.9987 37.3341 50.8552ZM41.2279 47.5864C43.6295 47.1033 46.0877 45.1101 47.0577 42.8592C47.5413 41.7371 47.6139 41.2876 47.6069 39.4609C47.5981 37.1859 47.403 36.3677 46.5367 34.9725C45.479 33.2692 43.7086 31.9412 41.6695 31.3217C40.9712 31.1095 40.8315 31.0959 39.3573 31.0978C37.8834 31.0997 37.7433 31.1136 37.0451 31.3279C34.7902 32.0201 33.0793 33.4598 32.0098 35.5652C30.5984 38.3435 30.7903 41.6975 32.4983 44.1C33.0072 44.8158 33.9513 45.8104 34.5519 46.2637C35.6306 47.0775 37.1017 47.6129 38.4902 47.697C39.3462 47.7489 40.69 47.6945 41.2279 47.5864ZM26.5713 45.0654C27.245 44.4325 27.9354 43.769 28.1056 43.591L28.415 43.2672L28.1509 42.2344C27.8956 41.236 27.8867 41.1434 27.8838 39.4609C27.8799 37.1992 28.0504 36.4193 29.0072 34.323C29.5838 33.0598 30.0857 32.3572 31.2512 31.1825C32.5341 29.8893 33.9912 28.9778 35.7683 28.3569C36.2393 28.1924 36.6422 28.0401 36.6637 28.0185C36.6852 27.997 36.6039 27.8758 36.483 27.7492L36.2633 27.519L36.9861 26.7969L37.7088 26.0748L38.5729 26.9451L39.4369 27.8153L40.1403 27.8154C40.8802 27.8155 41.8842 27.9667 42.5779 28.1824C42.805 28.253 43.0674 28.3112 43.1609 28.3117C43.3387 28.3127 46.2527 25.4361 46.2527 25.2597C46.2527 25.2093 45.9275 24.8303 45.5301 24.4174L44.8075 23.6667L44.3121 23.7512C43.574 23.8772 42.12 23.8544 41.3977 23.7056C39.8484 23.3866 38.3772 22.3389 37.1587 20.687C36.8496 20.268 36.554 19.6526 36.3426 18.9879C36.1123 18.2636 36.0193 16.4068 36.1739 15.6185L36.2735 15.1101L35.7922 14.6181C35.5275 14.3476 35.1717 14.0141 35.0015 13.8771L34.692 13.6281L32.3379 15.9335L29.9838 18.2389L31.0617 19.323L32.1395 20.4071L31.3838 21.1383L30.6282 21.8695L29.5626 20.8023L28.4971 19.7352L21.0656 27.194L13.6342 34.6527L14.4049 35.4263L15.1756 36.1999L15.8643 36.0988C16.6779 35.9794 18.0858 36.041 18.7635 36.2257C19.3773 36.3929 20.0661 36.7033 20.64 37.0713C23.0188 38.5965 24.2325 41.1896 23.8831 44.0001L23.7784 44.8423L24.4752 45.5292C24.8584 45.907 25.2112 46.2161 25.2592 46.2161C25.3071 46.2161 25.8976 45.6983 26.5713 45.0654Z" fill="#FFC525"/>
<rect x="2" y="2" width="60" height="60" rx="30" stroke="#FACC15" stroke-width="4"/>
</svg>
